<svg xmlns="http://www.w3.org/2000/svg" width="26" height="23.111" viewBox="0 0 26 23.111"><path d="M25.792,8.754,24.77,7.733a.722.722,0,0,0-1.021,0l-.511.511-1.3-1.3A2.877,2.877,0,0,0,21.2,4.158L19.153,2.115a7.223,7.223,0,0,0-10.214,0l4.086,2.043V5a2.887,2.887,0,0,0,.846,2.043l2.218,2.218A2.877,2.877,0,0,0,18.87,10l1.3,1.3-.511.511a.722.722,0,0,0,0,1.021l1.021,1.021a.722.722,0,0,0,1.021,0l4.086-4.086a.723.723,0,0,0,0-1.021ZM12.849,8.068a4.381,4.381,0,0,1-.445-.539L.89,18.28a2.791,2.791,0,1,0,3.945,3.945L15.584,10.711a4.389,4.389,0,0,1-.516-.425L12.849,8.068Z" transform="translate(-0.003)"/></svg>