<svg xmlns="http://www.w3.org/2000/svg" width="22" height="22" viewBox="0 0 22 22"><path d="M24.088,13.557a7.453,7.453,0,0,0-12.316,3.618.534.534,0,0,1-.517.406H8.714a.532.532,0,0,1-.524-.629A11,11,0,0,1,26.6,11.047l1.584-1.584A1.065,1.065,0,0,1,30,10.215v5.946a1.065,1.065,0,0,1-1.065,1.065H22.989a1.065,1.065,0,0,1-.753-1.817ZM9.065,20.774h5.946a1.065,1.065,0,0,1,.753,1.817l-1.852,1.852a7.453,7.453,0,0,0,12.316-3.618.534.534,0,0,1,.517-.406h2.542a.532.532,0,0,1,.524.629A11,11,0,0,1,11.4,26.953L9.817,28.538A1.065,1.065,0,0,1,8,27.785V21.839A1.065,1.065,0,0,1,9.065,20.774Z" transform="translate(-8 -8)"/></svg>