<?xml version="1.0" encoding="utf-8"?>
<!-- Generator: Adobe Illustrator 16.0.0, SVG Export Plug-In . SVG Version: 6.00 Build 0)  -->
<!DOCTYPE svg PUBLIC "-//W3C//DTD SVG 1.1//EN" "http://www.w3.org/Graphics/SVG/1.1/DTD/svg11.dtd">
<svg version="1.1" id="圖層_1" xmlns="http://www.w3.org/2000/svg" xmlns:xlink="http://www.w3.org/1999/xlink" x="0px" y="0px"
	 width="20px" height="20px" viewBox="15 15 20 20" enable-background="new 15 15 20 20" xml:space="preserve">
<path fill="#040000" d="M27.391,26.82h-1.294v-3.641h1.294c0.6,0,0.9-0.726,0.477-1.15l-2.416-2.416
	c-0.263-0.263-0.689-0.263-0.953,0l-2.416,2.416c-0.425,0.425-0.124,1.15,0.477,1.15h1.293v3.641H22.56
	c-0.601,0-0.901,0.727-0.477,1.15l2.416,2.416c0.263,0.264,0.69,0.264,0.953,0l2.416-2.416C28.291,27.547,27.99,26.82,27.391,26.82z
	"/>
<line fill="none" stroke="#040000" stroke-width="2" stroke-miterlimit="10" stroke-dasharray="2" x1="15.975" y1="32.833" x2="33.975" y2="32.833"/>
<line fill="none" stroke="#040000" stroke-width="2" stroke-miterlimit="10" stroke-dasharray="2" x1="15.975" y1="17.167" x2="33.975" y2="17.167"/>
</svg>
