<svg id="Group_517" data-name="Group 517" xmlns="http://www.w3.org/2000/svg" xmlns:xlink="http://www.w3.org/1999/xlink" width="958.174" height="216.724" viewBox="0 0 958.174 216.724">
  <defs>
    <clipPath id="clip-path">
      <rect id="Rectangle_1622" data-name="Rectangle 1622" width="958.174" height="216.724" fill="none"/>
    </clipPath>
  </defs>
  <g id="Group_516" data-name="Group 516" clip-path="url(#clip-path)">
    <path id="Path_379" data-name="Path 379" d="M177.967,127.736a88.884,88.884,0,1,0-54.435,82.041V169.736a54.373,54.373,0,1,1,19.827-42c0,.185-.019.37-.019.554h-.009v88.434l34.617-21.545V128.364c0-.2.019-.406.019-.628" fill="#a4c422"/>
    <path id="Path_380" data-name="Path 380" d="M958.174,127.736a88.885,88.885,0,1,0-54.436,82.041V169.736a54.377,54.377,0,1,1,19.819-42v.554h-.02v88.434l34.61-21.545V128.364c.009-.2.027-.406.027-.628" fill="#a4c422"/>
    <path id="Path_381" data-name="Path 381" d="M365.4,127.736a88.963,88.963,0,1,0-4.684,28.511H322.739a54.384,54.384,0,1,1,5.044-46.342h-79.8v28.4H364.757a90.574,90.574,0,0,0,.647-10.569" fill="#a4c422"/>
    <path id="Path_382" data-name="Path 382" d="M518.8,108.538V73.948H428.69V29.195H394.081V73.948h-19.2v34.59h19.2v18.219h.018c0,.332-.018.665-.018.979a88.975,88.975,0,0,0,84.3,88.859v.037h39.487V181.913H478.376a54.37,54.37,0,0,1-49.7-54.177c0-.351.028-.72.028-1.09h-.018V108.538Z" fill="#a4c422"/>
    <path id="Path_383" data-name="Path 383" d="M770.729,127.736a88.979,88.979,0,0,0-177.958,0c0,.222.008.406.008.609h.028v88.3H627.4V127.736h-.02a54.375,54.375,0,0,1,108.75,0h-.063V216.65h34.589v-88.3h.054c0-.2.021-.387.021-.609" fill="#a4c422"/>
    <path id="Path_384" data-name="Path 384" d="M583.282,27.5A27.494,27.494,0,1,1,555.778,0a27.5,27.5,0,0,1,27.5,27.5" fill="#a4c422"/>
    <rect id="Rectangle_1621" data-name="Rectangle 1621" width="40.928" height="149.705" transform="translate(535.324 66.945)" fill="#a4c422"/>
  </g>
</svg>
