<svg id="Group_519" data-name="Group 519" xmlns="http://www.w3.org/2000/svg" xmlns:xlink="http://www.w3.org/1999/xlink" width="215.886" height="90.379" viewBox="0 0 215.886 90.379">
  <defs>
    <clipPath id="clip-path">
      <rect id="Rectangle_1625" data-name="Rectangle 1625" width="215.886" height="90.379" transform="translate(0 0)" fill="none"/>
    </clipPath>
  </defs>
  <g id="Group_518" data-name="Group 518" clip-path="url(#clip-path)">
    <path id="Path_385" data-name="Path 385" d="M56.264,90.379a41.729,41.729,0,0,0,38.3-25.158A31.636,31.636,0,0,1,35.993,49.782H14.567a41.72,41.72,0,0,0,41.7,40.6" fill="#fff" fill-rule="evenodd"/>
    <path id="Path_386" data-name="Path 386" d="M69.818,25.931a19.9,19.9,0,0,1,11.226,3.448,9.224,9.224,0,1,0,7.9,10.727A19.99,19.99,0,1,1,69.818,25.931" fill="#fff" fill-rule="evenodd"/>
    <rect id="Rectangle_1623" data-name="Rectangle 1623" width="10.529" height="10.529" transform="translate(85.102 23.969)" fill="#fff"/>
    <rect id="Rectangle_1624" data-name="Rectangle 1624" width="16.351" height="16.352" transform="translate(95.631 7.617)" fill="#fff"/>
    <path id="Path_387" data-name="Path 387" d="M33.281,3.307C54.422-4.947,77.652,2.751,92.8,20.8,81.507,10.568,66.243,6.763,52.192,12.249c-13.4,5.234-22.53,17.687-25.455,32.362H0c4.142-18.753,16.028-34.565,33.281-41.3" fill="#fff" fill-rule="evenodd"/>
    <text id="EdgeEye" transform="translate(98.382 64.002)" fill="#fff" font-size="30.947" font-family="MyriadPro-Bold, Myriad Pro" font-weight="700"><tspan x="0" y="0" letter-spacing="-0.004em">E</tspan><tspan y="0">dge</tspan><tspan y="0" letter-spacing="-0.012em">E</tspan><tspan y="0" letter-spacing="-0.014em">y</tspan><tspan y="0">e</tspan></text>
  </g>
</svg>
