<?xml version="1.0" encoding="utf-8"?>
<!-- Generator: Adobe Illustrator 16.0.0, SVG Export Plug-In . SVG Version: 6.00 Build 0)  -->
<!DOCTYPE svg PUBLIC "-//W3C//DTD SVG 1.1//EN" "http://www.w3.org/Graphics/SVG/1.1/DTD/svg11.dtd">
<svg version="1.1" id="圖層_1" xmlns="http://www.w3.org/2000/svg" xmlns:xlink="http://www.w3.org/1999/xlink" x="0px" y="0px"
	 width="95px" height="19.996px" viewBox="0 0 95 19.996" enable-background="new 0 0 95 19.996" xml:space="preserve">
<g>
	<path fill="#C91D1D" d="M20.108,6.038C19.647,2.595,16.743,0,13.184,0C9.667,0,6.759,2.611,6.271,5.994
		C2.75,6.378,0,9.367,0,12.988c0,3.229,1.973,5.963,4.914,6.822C5.406,20,6.01,20.027,6.54,20.027l12.79-0.045
		c3.856,0,6.993-3.137,6.993-6.994C26.323,9.395,23.599,6.426,20.108,6.038 M19.33,18.286c-2.293,0-4.219-1.425-4.96-3.454
		l1.46-0.761c0,0-2.692-1.063-3.252-0.772c-0.561,0.292-1.233,3.107-1.233,3.107l1.511-0.786c0.408,1.017,1.043,1.911,1.847,2.622
		H6.54c-0.499,0-0.831-0.034-0.988-0.1l-0.103-0.037c-2.191-0.623-3.663-2.679-3.663-5.117c0-2.896,2.356-5.252,5.252-5.252
		c1.751,0,3.302,0.863,4.257,2.185l-1.492,0.822c0,0,2.716,1,3.27,0.696c0.554-0.306,1.159-3.136,1.159-3.136l-1.37,0.754
		c-1.098-1.623-2.851-2.767-4.879-3.042c0.461-2.454,2.614-4.319,5.2-4.319c2.896,0,5.22,2.27,5.29,5.167l0.02,0.828h0.828l0.033,0
		c2.909,0.015,5.271,2.385,5.271,5.297C24.626,15.91,22.25,18.286,19.33,18.286"/>
	<rect x="30.365" y="3.976" fill="#C91D1D" width="2.194" height="2.126"/>
	<rect x="30.365" y="7.658" fill="#C91D1D" width="2.194" height="12.325"/>
	<path fill="#C91D1D" d="M37.832,5.469c-0.979,0.988-1.468,2.256-1.468,3.806v5.253c0,1.55,0.483,2.846,1.451,3.89
		c0.967,1.045,2.238,1.565,3.813,1.565h11.339V17.79H41.602c-0.902,0-1.635-0.347-2.198-1.04c-0.564-0.693-0.846-1.487-0.846-2.383
		v-4.73c0-0.917,0.282-1.722,0.846-2.415C39.967,6.528,40.7,6.18,41.602,6.18h11.365V3.987H41.628
		C40.076,3.987,38.81,4.481,37.832,5.469"/>
	<path fill="#C91D1D" d="M69.161,4.012h-6.975c-1.472,0-2.699,0.493-3.684,1.479c-0.984,0.987-1.476,2.217-1.476,3.691v10.813h2.108
		v-5.896h13.076v5.896h2.109V9.41c0-1.474-0.492-2.742-1.477-3.804C71.86,4.543,70.631,4.012,69.161,4.012 M72.211,11.991H59.135
		V9.179c0-0.846,0.297-1.566,0.893-2.163c0.595-0.597,1.314-0.895,2.158-0.895h6.975c0.844,0,1.563,0.298,2.158,0.895
		c0.595,0.596,0.893,1.317,0.893,2.163V11.991z"/>
	<path fill="#C91D1D" d="M93.883,5.346c-0.745-0.896-1.715-1.345-2.911-1.345h-7.276c-1.535,0-2.815,0.563-3.842,1.689
		c-1.027,1.126-1.54,2.463-1.54,4.01v10.307h2.209V9.42c0-0.888,0.31-1.645,0.929-2.271c0.619-0.626,1.369-0.939,2.247-0.939h3.413
		h3.447c0.631,0,1.133,0.208,1.504,0.625c0.372,0.417,0.558,0.938,0.558,1.568c0,0.698,0.194,2.388-0.2,2.837
		c-0.393,0.45-0.928,0.674-1.603,0.674h-8.087v2.209c0,0,9.021-0.053,9.271-0.057c1.415-0.023,1.912-0.701,2.217-1.094
		C94.976,11.997,95,9.915,95,8.53C95,7.305,94.627,6.243,93.883,5.346"/>
</g>
</svg>
