<svg id="圖層_1" data-name="圖層 1" xmlns="http://www.w3.org/2000/svg" viewBox="0 0 101.33 50.09"><defs><style>.cls-1{fill:rgb(255,255,255);}</style></defs><path class="cls-1" d="M71.07,51.27c0,8.52-6.08,14.81-11.71,14.81H53.49V36.94h4.87C64.54,37.37,71.07,42.39,71.07,51.27Zm11-.87c0-8.26-3.66-16.17-9.56-20.08-3.15-2.09-7.66-3.86-11.43-3.86H37.47V36.89h4.11V66.08h-4V76.54H59C71.69,76.54,82.05,67.67,82.05,50.4Z" transform="translate(-37.47 -26.46)"/><path class="cls-1" d="M106,42.48V36.9H96.89V45h11.21V56.33H96.88v9.75h5V76.49H81.57V66.17h4V36.94H81.65V26.46h34.88v16Z" transform="translate(-37.47 -26.46)"/><path class="cls-1" d="M118.87,76.49V66.08h4V36.94h-4V26.46h19.94V36.9H135V66.08h3.81V76.49Z" transform="translate(-37.47 -26.46)"/></svg>