<svg xmlns="http://www.w3.org/2000/svg" xmlns:xlink="http://www.w3.org/1999/xlink" width="480" height="122" viewBox="0 0 480 122">
  <defs>
    <clipPath id="clip-logo">
      <rect width="480" height="122"/>
    </clipPath>
  </defs>
  <g id="logo" clip-path="url(#clip-logo)">
    <g id="Group_179" data-name="Group 179" transform="translate(-80 -179.417)">
      <g id="Group_178" data-name="Group 178">
        <g id="Group_177" data-name="Group 177">
          <g id="Group_176" data-name="Group 176">
            <g id="Group_175" data-name="Group 175">
              <g id="Group_174" data-name="Group 174">
                <g id="Group_173" data-name="Group 173">
                  <g id="Group_172" data-name="Group 172">
                    <g id="Group_171" data-name="Group 171">
                      <g id="Group_170" data-name="Group 170">
                        <g id="Group_169" data-name="Group 169">
                          <path id="Path_93" data-name="Path 93" d="M299.637,274v3.609h-8.169v16.8h-5.712v-16.8h-8.171V274Z" fill="#003288"/>
                          <path id="Path_94" data-name="Path 94" d="M312.78,279.632a7.99,7.99,0,0,1,3.478,2.232,6.494,6.494,0,0,1,1.6,3.119,14.585,14.585,0,0,1,.17,3H303.373a3.464,3.464,0,0,0,2.1,3.2,6.763,6.763,0,0,0,2.9.572,5.476,5.476,0,0,0,2.915-.7,3.735,3.735,0,0,0,1.086-1.043h5.369a4.7,4.7,0,0,1-1.948,2.723q-2.7,2.2-7.562,2.2a13.374,13.374,0,0,1-7.08-1.857q-3.066-1.858-3.068-6.047a7.077,7.077,0,0,1,2.773-6.015,11.6,11.6,0,0,1,7.193-2.094A14.735,14.735,0,0,1,312.78,279.632Zm-7.878,3.425a3.681,3.681,0,0,0-1.4,2.3h9.057a2.968,2.968,0,0,0-1.4-2.349,5.716,5.716,0,0,0-3.118-.8A5.069,5.069,0,0,0,304.9,283.057Z" fill="#003288"/>
                          <path id="Path_95" data-name="Path 95" d="M332.8,284.7a3.067,3.067,0,0,0-.766-1.517,4.488,4.488,0,0,0-6.428,1.062,6.425,6.425,0,0,0-.52,2.814,5.966,5.966,0,0,0,.517,2.688,3.6,3.6,0,0,0,3.554,1.91,3.7,3.7,0,0,0,2.629-.758,3.278,3.278,0,0,0,.946-1.964h5.382a5.74,5.74,0,0,1-1.74,3.409q-2.475,2.594-7.344,2.594t-7.164-2.152a7.35,7.35,0,0,1-2.294-5.622,7.563,7.563,0,0,1,2.536-6.077,10.453,10.453,0,0,1,7-2.162,13.306,13.306,0,0,1,6.211,1.271,5.571,5.571,0,0,1,2.86,4.5Z" fill="#003288"/>
                          <path id="Path_96" data-name="Path 96" d="M356.2,279.409a5.911,5.911,0,0,1,2.49,1.482,3.552,3.552,0,0,1,1.016,1.738,16.043,16.043,0,0,1,.186,2.917v8.868h-5.383v-9.188a3.24,3.24,0,0,0-.551-1.967,3.062,3.062,0,0,0-2.714-1.053,4.325,4.325,0,0,0-3.145,1.047,3.981,3.981,0,0,0-1.072,2.986v8.175h-5.251V274.036h5.251v7.242a6.131,6.131,0,0,1,2.638-1.836,9.648,9.648,0,0,1,3.156-.517A11.059,11.059,0,0,1,356.2,279.409Z" fill="#003288"/>
                          <path id="Path_97" data-name="Path 97" d="M381.069,280.152a4.409,4.409,0,0,1,1.979,4.071v10.191h-5.381v-9.208a3.328,3.328,0,0,0-.423-1.834,3.288,3.288,0,0,0-2.948-1.166q-2.665,0-3.662,1.707a4.607,4.607,0,0,0-.512,2.306v8.2H364.87v-15.1h5.087v2.194a7.792,7.792,0,0,1,1.913-1.677,8.287,8.287,0,0,1,4.107-.911A9.528,9.528,0,0,1,381.069,280.152Z" fill="#003288"/>
                          <path id="Path_98" data-name="Path 98" d="M404.706,292.577q-2.547,2.361-7.735,2.361t-7.744-2.361a7.6,7.6,0,0,1,0-11.354q2.556-2.4,7.744-2.4t7.735,2.4a7.6,7.6,0,0,1,0,11.354Zm-4.206-2.156a5.577,5.577,0,0,0,0-7.02,5.785,5.785,0,0,0-7.122,0,5.56,5.56,0,0,0,0,7.02,5.748,5.748,0,0,0,7.122,0Z" fill="#003288"/>
                          <path id="Path_99" data-name="Path 99" d="M416.37,294.414h-5.25V274.036h5.25Z" fill="#003288"/>
                          <path id="Path_100" data-name="Path 100" d="M438.3,292.577q-2.547,2.361-7.737,2.361t-7.741-2.361a7.6,7.6,0,0,1,0-11.354q2.551-2.4,7.741-2.4t7.737,2.4a7.592,7.592,0,0,1,0,11.354Zm-4.2-2.156a5.574,5.574,0,0,0,0-7.02,5.785,5.785,0,0,0-7.122,0,5.556,5.556,0,0,0,0,7.02,5.748,5.748,0,0,0,7.122,0Z" fill="#003288"/>
                          <path id="Path_101" data-name="Path 101" d="M454.549,279.269a6,6,0,0,1,3.093,2.2v-2.147h5.152v14.313a6.476,6.476,0,0,1-1.311,4.4q-2.25,2.545-8.636,2.547a15.009,15.009,0,0,1-6.294-1.137,4.2,4.2,0,0,1-2.694-3.39h5.713a1.715,1.715,0,0,0,.717,1,5.581,5.581,0,0,0,2.861.543q2.838,0,3.8-1.424a5.6,5.6,0,0,0,.63-3.063v-.965a5.5,5.5,0,0,1-1.626,1.441,8.2,8.2,0,0,1-4.079.893,9,9,0,0,1-6.188-2.046,7.018,7.018,0,0,1-2.318-5.546,7.821,7.821,0,0,1,2.23-5.667,8.391,8.391,0,0,1,6.319-2.3A9.049,9.049,0,0,1,454.549,279.269Zm1.761,10.875a4.118,4.118,0,0,0,1.268-3.354,4.315,4.315,0,0,0-1.2-3.291,4.513,4.513,0,0,0-3.219-1.129,3.912,3.912,0,0,0-3.795,1.966,5.5,5.5,0,0,0-.546,2.58,4.692,4.692,0,0,0,.585,2.356,3.973,3.973,0,0,0,3.812,1.926A4.674,4.674,0,0,0,456.31,290.144Z" fill="#003288"/>
                          <path id="Path_102" data-name="Path 102" d="M468.493,297.335l.663.033a10.681,10.681,0,0,0,1.477-.039A3.161,3.161,0,0,0,471.81,297a2.243,2.243,0,0,0,.858-1c.266-.508.372-.819.33-.93l-7.379-15.752h5.852l4.389,11.133,4.154-11.133h5.592l-6.9,14.845c-1.331,2.858-2.382,4.636-3.159,5.319s-2.325,1.036-4.651,1.036c-.468,0-.844-.006-1.127-.01s-.707-.024-1.274-.057Z" fill="#003288"/>
                          <path id="Path_103" data-name="Path 103" d="M504.814,294.414H499.17V274h5.644Z" fill="#003288"/>
                          <path id="Path_104" data-name="Path 104" d="M525.968,280.152a4.413,4.413,0,0,1,1.982,4.071v10.191h-5.382v-9.208a2.742,2.742,0,0,0-3.369-3c-1.783,0-3,.568-3.665,1.707a4.617,4.617,0,0,0-.515,2.306v8.2h-5.25v-15.1h5.086v2.194a7.849,7.849,0,0,1,1.914-1.677,8.3,8.3,0,0,1,4.11-.911A9.512,9.512,0,0,1,525.968,280.152Z" fill="#003288"/>
                          <path id="Path_105" data-name="Path 105" d="M544.9,284.7a3,3,0,0,0-.762-1.517,4.491,4.491,0,0,0-6.431,1.062,6.47,6.47,0,0,0-.519,2.814,5.993,5.993,0,0,0,.517,2.688,3.594,3.594,0,0,0,3.556,1.91,3.71,3.71,0,0,0,2.629-.758,3.3,3.3,0,0,0,.946-1.964h5.383a5.784,5.784,0,0,1-1.742,3.409q-2.48,2.594-7.344,2.594t-7.164-2.152a7.349,7.349,0,0,1-2.293-5.622,7.555,7.555,0,0,1,2.537-6.077,10.439,10.439,0,0,1,7-2.162,13.31,13.31,0,0,1,6.212,1.271,5.578,5.578,0,0,1,2.86,4.5Z" fill="#003288"/>
                          <path id="Path_106" data-name="Path 106" d="M553.756,290.279h5.577v4.135h-5.577Z" fill="#003288"/>
                        </g>
                      </g>
                    </g>
                  </g>
                </g>
              </g>
            </g>
          </g>
        </g>
      </g>
      <path id="Path_107" data-name="Path 107" d="M262.875,206.449h21.21L256.84,255.9H235.974l-27.108-49.449h22.186l15.739,36.48Z" fill="#003288" fill-rule="evenodd"/>
      <path id="Path_108" data-name="Path 108" d="M334.276,231.854a31.077,31.077,0,0,1-3.966,1.274,53.209,53.209,0,0,1-5.428.858l-4.624.548a43.586,43.586,0,0,0-9.324,1.767q-4.771,1.771-4.769,5.487a5.041,5.041,0,0,0,2.893,4.811,16.045,16.045,0,0,0,7.143,1.455,29.931,29.931,0,0,0,12.226-2.457q5.639-2.446,5.849-8.936Zm-12.507-6.033a48.425,48.425,0,0,0,8.169-1.132c2.948-.789,4.409-2.015,4.409-3.675q0-3.042-3.395-4.173a31.03,31.03,0,0,0-9.828-1.182q-7.3,0-10.334,2.268a8.013,8.013,0,0,0-2.891,4.538H288.02a15.209,15.209,0,0,1,5.789-10.661q8.171-6.531,28.036-6.532a75.277,75.277,0,0,1,22.982,3.218q10.061,3.225,10.051,12.159v22.684c0,1.574.05,3.48.139,5.719.15,1.691.546,2.843,1.231,3.445a7.859,7.859,0,0,0,3.036,1.5v1.9H336.877a10.792,10.792,0,0,1-1.294-2.81A20.741,20.741,0,0,1,335,250.1a45.325,45.325,0,0,1-9.829,4.945,44.121,44.121,0,0,1-15.033,2.4q-10.7,0-17.7-3.8-6.947-3.859-6.938-10.892,0-9.122,11.2-13.2,6.135-2.226,18.059-3.177Z" fill="#003288" fill-rule="evenodd"/>
      <rect id="Rectangle_1566" data-name="Rectangle 1566" width="20.6" height="75.05" transform="translate(371.909 180.848)" fill="#003288"/>
      <path id="Path_109" data-name="Path 109" d="M428.673,206.449v29.808c0,2.814.5,4.93,1.473,6.349q2.649,3.768,10.317,3.762,9.849,0,13.481-5.347a13.929,13.929,0,0,0,1.892-7.67v-26.9h19.481V255.9H456.645v-6.986c-.189.152-.626.606-1.354,1.364a11.291,11.291,0,0,1-2.558,2,30.6,30.6,0,0,1-8.761,3.719,42.891,42.891,0,0,1-9.844,1q-16.3,0-21.963-7.889-3.167-4.36-3.174-12.84V206.449Z" fill="#003288" fill-rule="evenodd"/>
      <path id="Path_110" data-name="Path 110" d="M511.49,218.609a12.126,12.126,0,0,0-4.908,7.622h32a9.635,9.635,0,0,0-4.99-7.759A20.807,20.807,0,0,0,522.62,215.8Q515.453,215.8,511.49,218.609Zm28.838-11.159a30.73,30.73,0,0,1,13.008,7.3,20.356,20.356,0,0,1,6,10.207,41.273,41.273,0,0,1,.642,9.8H506.069q.424,7.443,7.445,10.438a25.576,25.576,0,0,0,10.262,1.861,20.678,20.678,0,0,0,10.336-2.273,12.61,12.61,0,0,0,3.825-3.4h21.026q-.78,4.4-7.3,8.933-10.11,7.218-28.325,7.216-15.039,0-26.525-6.082t-11.491-19.777q0-12.84,10.332-19.689,10.418-6.853,26.964-6.851A62.7,62.7,0,0,1,540.328,207.45Z" fill="#003288" fill-rule="evenodd"/>
      <path id="Path_111" data-name="Path 111" d="M208.784,249.362a118.264,118.264,0,0,1-19.532.168c12.76-21.613,13.887-45,.78-58.944-17.685-18.819-54.562-13.294-82.374,12.343s-36.016,61.673-18.331,80.5S143.9,296.72,171.7,271.083a98.3,98.3,0,0,0,12.758-14.272c.422-.072.824-.151,1.235-.225h-16.3a11.029,11.029,0,0,1-1.322-2.872,22.758,22.758,0,0,1-.6-3.055,45.667,45.667,0,0,1-10.023,5.041,44.891,44.891,0,0,1-15.345,2.457q-10.91,0-18.064-3.892-7.074-3.932-7.079-11.1,0-9.309,11.429-13.476,6.273-2.261,18.438-3.238l7.158-.556a49.251,49.251,0,0,0,8.323-1.159c3.009-.8,4.506-2.049,4.507-3.749q0-3.1-3.467-4.259a31.905,31.905,0,0,0-10.032-1.2q-7.449,0-10.541,2.314a8.2,8.2,0,0,0-2.949,4.63H119.544a15.491,15.491,0,0,1,5.9-10.878q8.326-6.668,28.61-6.667a76.766,76.766,0,0,1,23.444,3.29q10.253,3.282,10.248,12.4v23.144c0,1.608.052,3.549.149,5.834a5.282,5.282,0,0,0,1.258,3.519,8.036,8.036,0,0,0,3.091,1.528v.55A77.591,77.591,0,0,0,208.784,249.362Zm-51.63-15.136-4.724.552a44.727,44.727,0,0,0-9.513,1.808q-4.857,1.8-4.865,5.6a5.134,5.134,0,0,0,2.956,4.907,16.455,16.455,0,0,0,7.291,1.48,30.548,30.548,0,0,0,12.462-2.5q5.762-2.508,5.976-9.12v-4.908a30.343,30.343,0,0,1-4.052,1.295A53.089,53.089,0,0,1,157.154,234.226Z" fill="#003288"/>
    </g>
  </g>
</svg>
