<svg xmlns="http://www.w3.org/2000/svg" xmlns:xlink="http://www.w3.org/1999/xlink" width="1240" height="465" viewBox="0 0 1240 465">
  <defs>
    <clipPath id="clip-logo_short">
      <rect width="1240" height="465"/>
    </clipPath>
  </defs>
  <g id="logo_short" clip-path="url(#clip-logo_short)">
    <g id="Group_179" data-name="Group 179" transform="translate(-892.455 -302.434)">
      <g id="Group_176" data-name="Group 176">
        <rect id="Rectangle_1570" data-name="Rectangle 1570" width="198.15" height="25.744" transform="translate(1706.771 302.435)" fill="#fff"/>
        <rect id="Rectangle_1571" data-name="Rectangle 1571" width="172.992" height="27.434" transform="translate(1792.129 513.263) rotate(-90)" fill="#fff"/>
        <path id="Path_108" data-name="Path 108" d="M2132.456,302.435h-33.545l-62.865,91.014-63.515-91.014h-32.765l80.287,116.108v94.72h31.985V417.949Z" fill="#fff"/>
        <path id="Path_109" data-name="Path 109" d="M2033.771,318.818" fill="#fff"/>
        <rect id="Rectangle_1572" data-name="Rectangle 1572" width="26.036" height="210.827" transform="translate(1636.04 302.435)" fill="#fff"/>
        <g id="Group_174" data-name="Group 174">
          <path id="Path_110" data-name="Path 110" d="M1567.78,302.435V487.064h-24.964L1409.155,353.046v39.786l121.764,120.431h55.757a9.968,9.968,0,0,0,9.968-9.969V302.435Z" fill="#fff"/>
          <path id="Path_111" data-name="Path 111" d="M1410.436,328.179,1546.2,464.96l20.023-19.243L1422.677,302.435h-56.049a9.968,9.968,0,0,0-9.968,9.969V513.263h27.791V328.179Z" fill="#fff"/>
        </g>
        <g id="Group_175" data-name="Group 175">
          <path id="Path_112" data-name="Path 112" d="M1318.791,302.435H1142.7a9.968,9.968,0,0,0-9.968,9.969v190.89a9.968,9.968,0,0,0,9.968,9.969h176.09v-26.2H1160.037V328.634h158.754Z" fill="#fff"/>
          <rect id="Rectangle_1573" data-name="Rectangle 1573" width="100.375" height="27.824" transform="translate(1205.154 393.839)" fill="#fff"/>
        </g>
        <path id="Path_113" data-name="Path 113" d="M1098.928,398.9V355.093c0-53.439-61.045-52.658-61.045-52.658H902.424a9.968,9.968,0,0,0-9.968,9.969V513.263h27.3V328.179h118.123s33.546,0,33.546,29.645v35.214c0,14.725-19.113,19.589-19.113,19.589a14.432,14.432,0,1,0,0,28.865s16.187,1.993,16.187,19.156v52.615H1096.2V458.654c0-18.819-12.677-30.619-12.677-30.619S1098.928,417.817,1098.928,398.9Z" fill="#fff"/>
      </g>
      <g id="Group_178" data-name="Group 178">
        <g id="Group_177" data-name="Group 177">
          <path id="Path_114" data-name="Path 114" d="M943.368,708.336l21.729-1.9q1.541,13.064,7.183,21.432T989.793,741.4a66.333,66.333,0,0,0,26.715,5.164,64.024,64.024,0,0,0,23.272-3.918q10.09-3.918,15.02-10.745a24.931,24.931,0,0,0,4.927-14.9,22.656,22.656,0,0,0-4.749-14.306q-4.75-6.116-15.673-10.271-7.007-2.73-30.989-8.489t-33.6-10.865q-12.466-6.528-18.581-16.207a39.706,39.706,0,0,1-6.116-21.669,44.239,44.239,0,0,1,7.481-24.637q7.479-11.459,21.847-17.4a82.885,82.885,0,0,1,31.939-5.936q19.352,0,34.136,6.234t22.737,18.344a52.708,52.708,0,0,1,8.549,27.427l-22.084,1.662q-1.782-16.5-12.051-24.934t-30.337-8.43q-20.9,0-30.455,7.658t-9.558,18.464a19.8,19.8,0,0,0,6.767,15.435q6.65,6.055,34.73,12.407t38.529,11.1q15.2,7.008,22.441,17.751a43.259,43.259,0,0,1,7.242,24.756,47.354,47.354,0,0,1-7.955,26.18q-7.956,12.291-22.855,19.117t-33.543,6.827q-23.63,0-39.6-6.887a55.444,55.444,0,0,1-25.053-20.719A58.732,58.732,0,0,1,943.368,708.336Z" fill="#fff"/>
          <path id="Path_115" data-name="Path 115" d="M1196.983,723.653l22.085,2.73q-5.227,19.355-19.354,30.04t-36.095,10.686q-27.668,0-43.872-17.039t-16.207-47.79q0-31.818,16.385-49.393t42.507-17.572q25.29,0,41.319,17.216t16.029,48.443q0,1.9-.119,5.7h-94.037q1.187,20.778,11.755,31.82t26.359,11.042q11.754,0,20.066-6.174T1196.983,723.653ZM1126.812,689.1h70.409q-1.425-15.909-8.074-23.865-10.213-12.348-26.478-12.349-14.724,0-24.755,9.855T1126.812,689.1Z" fill="#fff"/>
          <path id="Path_116" data-name="Path 116" d="M1245.9,764.259V638.164h19.235v17.929q13.891-20.777,40.132-20.778a52.668,52.668,0,0,1,20.957,4.1q9.556,4.1,14.307,10.745a41.291,41.291,0,0,1,6.649,15.792q1.185,5.938,1.187,20.778v77.533H1327v-76.7q0-13.06-2.493-19.532a20.553,20.553,0,0,0-8.845-10.33,28.149,28.149,0,0,0-14.9-3.859,34.629,34.629,0,0,0-23.568,8.668q-9.915,8.668-9.915,32.889v68.865Z" fill="#fff"/>
          <path id="Path_117" data-name="Path 117" d="M1427.8,745.143l3.087,18.879a79.379,79.379,0,0,1-16.148,1.9q-11.637,0-18.047-3.681a20.6,20.6,0,0,1-9.024-9.676q-2.613-6-2.612-25.232V654.787h-15.673V638.164h15.673V606.937l21.253-12.823v44.05H1427.8v16.623H1406.31v73.734q0,9.144,1.129,11.754a8.878,8.878,0,0,0,3.681,4.156q2.552,1.545,7.3,1.543A69.373,69.373,0,0,0,1427.8,745.143Z" fill="#fff"/>
          <path id="Path_118" data-name="Path 118" d="M1448.817,614.774V590.2h21.372v24.578Zm0,149.485V638.164h21.372V764.259Z" fill="#fff"/>
          <path id="Path_119" data-name="Path 119" d="M1502.722,764.259V638.164h19.235v17.929q13.891-20.777,40.132-20.778a52.668,52.668,0,0,1,20.957,4.1q9.555,4.1,14.307,10.745A41.306,41.306,0,0,1,1604,665.948q1.185,5.938,1.187,20.778v77.533h-21.372v-76.7q0-13.06-2.493-19.532a20.554,20.554,0,0,0-8.846-10.33,28.143,28.143,0,0,0-14.9-3.859,34.627,34.627,0,0,0-23.568,8.668q-9.915,8.668-9.915,32.889v68.865Z" fill="#fff"/>
          <path id="Path_120" data-name="Path 120" d="M1724.279,723.653l22.084,2.73q-5.226,19.355-19.353,30.04t-36.095,10.686q-27.668,0-43.872-17.039t-16.208-47.79q0-31.818,16.386-49.393t42.506-17.572q25.29,0,41.319,17.216t16.029,48.443q0,1.9-.118,5.7H1652.92q1.185,20.778,11.754,31.82t26.359,11.042q11.756,0,20.066-6.174T1724.279,723.653ZM1654.107,689.1h70.409q-1.425-15.909-8.074-23.865-10.212-12.348-26.477-12.349-14.724,0-24.756,9.855T1654.107,689.1Z" fill="#fff"/>
          <path id="Path_121" data-name="Path 121" d="M1772.722,764.259V590.2h21.372V764.259Z" fill="#fff"/>
        </g>
        <path id="Path_122" data-name="Path 122" d="M2061.544,556.4H1890.716a20,20,0,0,0-20,20V747.228a20,20,0,0,0,20,20h170.828a20,20,0,0,0,20-20V576.4A20,20,0,0,0,2061.544,556.4Zm-22.463,201.026H1913.2a41.31,41.31,0,0,1,2.727-16.238,85.877,85.877,0,0,1,15.4-25.333q10.587-12.471,30.593-28.839,31.047-25.459,41.961-40.337t10.912-28.125a31.248,31.248,0,0,0-9.939-23.448q-9.937-9.549-25.916-9.548-16.889,0-27.021,10.133t-10.263,28.06l-24.033-2.469q2.466-26.891,18.577-40.986t43.26-14.1q27.408,0,43.389,15.2t15.979,37.673a57.145,57.145,0,0,1-4.677,22.474q-4.677,11.043-15.524,23.254t-36.05,33.516q-21.043,17.668-27.02,23.968a77.012,77.012,0,0,0-9.874,12.666h93.405Z" fill="#fff"/>
      </g>
    </g>
  </g>
</svg>
