<svg xmlns="http://www.w3.org/2000/svg" xmlns:xlink="http://www.w3.org/1999/xlink" width="2465" height="211" viewBox="0 0 2465 211">
  <defs>
    <clipPath id="clip-logo_long">
      <rect width="2465" height="211"/>
    </clipPath>
  </defs>
  <g id="logo_long" clip-path="url(#clip-logo_long)">
    <g id="Group_173" data-name="Group 173" transform="translate(0 0.001)">
      <g id="Group_171" data-name="Group 171">
        <rect id="Rectangle_1566" data-name="Rectangle 1566" width="198.15" height="25.74" transform="translate(814.31)" fill="#003288"/>
        <rect id="Rectangle_1567" data-name="Rectangle 1567" width="172.99" height="27.43" transform="translate(899.678 210.832) rotate(-90)" fill="#003288"/>
        <path id="Path_93" data-name="Path 93" d="M1240,0h-33.55l-62.86,91.01L1080.08,0h-32.77l80.29,116.11v94.72h31.98V115.51Z" fill="#003288"/>
        <path id="Path_94" data-name="Path 94" d="M1141.31,16.38" fill="#003288"/>
        <rect id="Rectangle_1568" data-name="Rectangle 1568" width="26.04" height="210.83" transform="translate(743.58)" fill="#003288"/>
        <g id="Group_169" data-name="Group 169">
          <path id="Path_95" data-name="Path 95" d="M675.32,0V184.63H650.36L516.7,50.61V90.4L638.46,210.83h55.76a9.965,9.965,0,0,0,9.97-9.97V0Z" fill="#003288"/>
          <path id="Path_96" data-name="Path 96" d="M517.98,25.74,653.74,162.52l20.02-19.24L530.22,0H474.18a9.965,9.965,0,0,0-9.97,9.97V210.83H492V25.74Z" fill="#003288"/>
        </g>
        <g id="Group_170" data-name="Group 170">
          <path id="Path_97" data-name="Path 97" d="M426.34,0H250.24a9.965,9.965,0,0,0-9.97,9.97V200.86a9.965,9.965,0,0,0,9.97,9.97H426.33v-26.2H267.58V26.2H426.33V0Z" fill="#003288"/>
          <rect id="Rectangle_1569" data-name="Rectangle 1569" width="100.38" height="27.82" transform="translate(312.7 91.4)" fill="#003288"/>
        </g>
        <path id="Path_98" data-name="Path 98" d="M206.47,96.46V52.65C206.47-.78,145.43,0,145.43,0H9.97A9.965,9.965,0,0,0,0,9.97V210.83H27.3V25.74H145.42s33.55,0,33.55,29.64V90.59c0,14.73-19.11,19.59-19.11,19.59a14.43,14.43,0,0,0,0,28.86s16.19,1.99,16.19,19.16v52.61h27.69V156.2c0-18.82-12.68-30.62-12.68-30.62S206.47,115.38,206.47,96.46Z" fill="#003288"/>
      </g>
      <g id="Group_172" data-name="Group 172">
        <path id="Path_99" data-name="Path 99" d="M1326.5,151.94l21.73-1.9q1.545,13.065,7.18,21.43t17.51,13.54a66.35,66.35,0,0,0,26.71,5.16,64.042,64.042,0,0,0,23.27-3.92q10.095-3.915,15.02-10.74a24.959,24.959,0,0,0,4.93-14.9,22.648,22.648,0,0,0-4.75-14.31q-4.755-6.12-15.67-10.27-7.005-2.73-30.99-8.49t-33.6-10.86q-12.465-6.525-18.58-16.21a39.684,39.684,0,0,1-6.12-21.67,44.217,44.217,0,0,1,7.48-24.64q7.485-11.46,21.85-17.39a82.835,82.835,0,0,1,31.94-5.94q19.35,0,34.14,6.23,14.775,6.225,22.74,18.34a52.758,52.758,0,0,1,8.55,27.43l-22.08,1.66q-1.785-16.5-12.05-24.93t-30.34-8.43q-20.9,0-30.45,7.66t-9.56,18.46a19.82,19.82,0,0,0,6.77,15.44q6.645,6.06,34.73,12.41t38.53,11.1q15.2,7,22.44,17.75a43.237,43.237,0,0,1,7.24,24.76,47.294,47.294,0,0,1-7.96,26.18q-7.95,12.285-22.86,19.12t-33.54,6.83q-23.625,0-39.6-6.89a55.409,55.409,0,0,1-25.05-20.72A58.786,58.786,0,0,1,1326.5,151.94Z" fill="#003288"/>
        <path id="Path_100" data-name="Path 100" d="M1580.11,167.25l22.08,2.73q-5.22,19.35-19.35,30.04t-36.09,10.69q-27.66,0-43.87-17.04t-16.21-47.79q0-31.815,16.39-49.39t42.51-17.57q25.29,0,41.32,17.22t16.03,48.44q0,1.905-.12,5.7h-94.04q1.185,20.775,11.75,31.82t26.36,11.04q11.76,0,20.07-6.17T1580.11,167.25Zm-70.17-34.55h70.41q-1.425-15.915-8.07-23.87-10.215-12.345-26.48-12.35-14.73,0-24.76,9.85Q1511.02,116.2,1509.94,132.7Z" fill="#003288"/>
        <path id="Path_101" data-name="Path 101" d="M1629.03,207.86V81.76h19.23V99.69q13.89-20.775,40.13-20.78a52.7,52.7,0,0,1,20.96,4.1q9.555,4.1,14.31,10.75a41.406,41.406,0,0,1,6.65,15.79q1.185,5.94,1.19,20.78v77.53h-21.37v-76.7q0-13.065-2.49-19.53a20.524,20.524,0,0,0-8.85-10.33,28.167,28.167,0,0,0-14.9-3.86,34.63,34.63,0,0,0-23.57,8.67q-9.915,8.67-9.91,32.89v68.87h-21.38Z" fill="#003288"/>
        <path id="Path_102" data-name="Path 102" d="M1810.93,188.74l3.09,18.88a79.077,79.077,0,0,1-16.15,1.9q-11.64,0-18.05-3.68a20.593,20.593,0,0,1-9.02-9.68q-2.61-6-2.61-25.23V98.39h-15.67V81.76h15.67V50.54l21.25-12.82V81.77h21.49V98.39h-21.49v73.73q0,9.15,1.13,11.75a8.919,8.919,0,0,0,3.68,4.16q2.55,1.545,7.3,1.54A68.482,68.482,0,0,0,1810.93,188.74Z" fill="#003288"/>
        <path id="Path_103" data-name="Path 103" d="M1831.95,58.37V33.8h21.37V58.38h-21.37Zm0,149.49V81.76h21.37V207.85h-21.37Z" fill="#003288"/>
        <path id="Path_104" data-name="Path 104" d="M1885.85,207.86V81.76h19.23V99.69q13.89-20.775,40.13-20.78a52.7,52.7,0,0,1,20.96,4.1q9.555,4.1,14.31,10.75a41.25,41.25,0,0,1,6.65,15.79q1.185,5.94,1.19,20.78v77.53h-21.37v-76.7q0-13.065-2.49-19.53a20.524,20.524,0,0,0-8.85-10.33,28.167,28.167,0,0,0-14.9-3.86,34.63,34.63,0,0,0-23.57,8.67q-9.915,8.67-9.91,32.89v68.87h-21.38Z" fill="#003288"/>
        <path id="Path_105" data-name="Path 105" d="M2107.41,167.25l22.08,2.73q-5.22,19.35-19.35,30.04t-36.09,10.69q-27.66,0-43.87-17.04t-16.21-47.79q0-31.815,16.39-49.39t42.51-17.57q25.29,0,41.32,17.22t16.03,48.44q0,1.905-.12,5.7h-94.04q1.185,20.775,11.75,31.82t26.36,11.04q11.76,0,20.07-6.17T2107.41,167.25Zm-70.17-34.55h70.41q-1.425-15.915-8.07-23.87-10.215-12.345-26.48-12.35-14.73,0-24.76,9.85Q2038.305,116.2,2037.24,132.7Z" fill="#003288"/>
        <path id="Path_106" data-name="Path 106" d="M2155.85,207.86V33.8h21.37V207.86Z" fill="#003288"/>
      </g>
      <path id="Path_107" data-name="Path 107" d="M2444.68,0H2273.85a19.994,19.994,0,0,0-20,20V190.83a19.994,19.994,0,0,0,20,20h170.83a19.994,19.994,0,0,0,20-20V20A20,20,0,0,0,2444.68,0Zm-22.47,201.03H2296.33a41.3,41.3,0,0,1,2.73-16.24,85.75,85.75,0,0,1,15.39-25.33q10.59-12.465,30.59-28.84,31.05-25.455,41.96-40.34t10.91-28.13a31.24,31.24,0,0,0-9.94-23.45q-9.945-9.555-25.92-9.55-16.89,0-27.02,10.13t-10.26,28.06l-24.03-2.47q2.46-26.9,18.58-40.99t43.26-14.09q27.405,0,43.39,15.2t15.98,37.67a57.086,57.086,0,0,1-4.68,22.47q-4.68,11.04-15.52,23.25T2365.7,141.9q-21.045,17.67-27.02,23.97a76.92,76.92,0,0,0-9.87,12.67h93.4v22.49Z" fill="#003288"/>
    </g>
  </g>
</svg>
